<?xml version="1.0" encoding="utf-8"?>
<!-- Generator: Adobe Illustrator 15.1.0, SVG Export Plug-In . SVG Version: 6.00 Build 0)  -->
<!DOCTYPE svg PUBLIC "-//W3C//DTD SVG 1.1//EN" "http://www.w3.org/Graphics/SVG/1.1/DTD/svg11.dtd">
<svg version="1.1" id="Lager_1" xmlns="http://www.w3.org/2000/svg" xmlns:xlink="http://www.w3.org/1999/xlink" x="0px" y="0px"
	 width="220px" height="36px" viewBox="0 0 220 36" enable-background="new 0 0 220 36" xml:space="preserve">
<g id="g10" transform="matrix(1.3333333,0,0,-1.3333333,0,32.68)">
	<g id="g12" transform="scale(0.1)">
		<path id="path14" fill="#FFFFFF" d="M1631.089,60.632l-136.963,131.049c-4.915,4.757-12.795,4.596-17.549-0.333L1283.035-10.881
			h296.873l0,0l51.658,53.965C1636.333,48.005,1636.172,55.871,1631.089,60.632"/>
		<path id="path16" fill="#FFFFFF" d="M1190.208,101.633c0.659,0,1.15,0,1.802,0c0.491,0,0.981,0.161,1.479,0.33
			c0.491,0.168,0.82,0.491,0.981,0.82c0.33,0.322,0.33,0.989,0.33,1.637c0,0.659-0.168,0.985-0.33,1.479s-0.491,0.656-0.82,0.82
			c-0.33,0.161-0.82,0.33-1.311,0.33s-0.981,0.165-1.472,0.165h-3.611v-5.581H1190.208L1190.208,101.633z M1191.519,109.51
			c2.131,0,3.611-0.494,4.592-1.315s1.472-2.135,1.472-3.768c0-1.644-0.491-2.794-1.311-3.453c-0.82-0.82-1.963-1.143-3.281-1.304
			l5.083-7.874h-2.944l-4.761,7.537h-2.952v-7.537h-2.791v17.714H1191.519L1191.519,109.51z M1179.053,95.569
			c0.659-1.641,1.479-2.952,2.622-4.102c1.15-1.15,2.461-2.131,3.94-2.783c1.479-0.659,3.105-0.996,4.922-0.996
			c1.802,0,3.442,0.337,4.915,0.996c1.479,0.652,2.791,1.633,3.94,2.783c1.143,1.15,1.963,2.461,2.622,4.102
			s0.981,3.274,0.981,5.083c0,1.802-0.322,3.446-0.981,5.083c-0.659,1.641-1.479,2.955-2.622,4.102
			c-1.15,1.15-2.461,1.967-3.94,2.787c-1.472,0.663-3.113,0.989-4.915,0.989c-1.816,0-3.442-0.326-4.922-0.989
			c-1.479-0.659-2.791-1.637-3.94-2.787c-1.143-1.146-1.963-2.461-2.622-4.102c-0.659-1.637-0.981-3.281-0.981-5.083
			C1178.071,98.843,1178.394,97.041,1179.053,95.569z M1176.431,106.555c0.82,1.805,1.963,3.442,3.281,4.757
			c1.304,1.311,2.944,2.461,4.915,3.113c1.802,0.828,3.772,1.15,5.911,1.15c2.131,0,4.094-0.322,5.896-1.15
			c1.809-0.813,3.442-1.802,4.761-3.113c1.318-1.315,2.461-2.952,3.281-4.757c0.82-1.802,1.15-3.772,1.15-5.903
			s-0.33-4.263-1.15-6.072c-0.82-1.802-1.963-3.442-3.281-4.753s-2.952-2.461-4.761-3.113c-1.802-0.82-3.765-1.15-5.896-1.15
			c-2.139,0-4.109,0.33-5.911,1.15c-1.802,0.813-3.442,1.802-4.915,3.113c-1.318,1.311-2.461,2.952-3.281,4.753
			c-0.82,1.809-1.15,3.94-1.15,6.072S1175.772,104.753,1176.431,106.555"/>
		<path id="path18" fill="#FFFFFF" d="M367.006,56.531c-0.161,9.675-12.792,16.729-22.31,16.729
			c-17.875,0-28.535-14.099-28.535-33.127s10.66-33.135,28.535-33.135c9.518,0,21.328,6.394,22.31,16.729V56.531z M367.006-2.517
			c-4.592-5.735-14.927-11.155-26.246-11.155c-30.176,0-47.893,24.111-47.893,53.804c0,29.517,17.717,53.796,47.893,53.796
			c11.32,0,21.654-5.413,26.246-11.162v48.226h23.287V-11.372h-23.287V-2.517"/>
		<path id="path20" fill="#FFFFFF" d="M424.578,51.77h46.578c-0.165,12.473-7.383,22.808-21.654,22.808
			C436.879,74.402,427.361,66.536,424.578,51.77z M493.297,20.613c-3.446-20.5-18.53-34.285-43.462-34.285
			c-28.707,0-48.713,21.819-48.713,53.635c0,30.835,20.167,54.126,48.219,54.126c29.033,0,44.773-20.669,44.773-50.845V34.88H423.75
			c0.659-18.04,11.155-29.026,25.92-29.026c11.151,0,19.519,4.915,21.98,14.919h21.647V20.613"/>
		<path id="path22" fill="#FFFFFF" d="M811.161,74.08c-16.732,0-25.752-14.436-25.752-33.948c0-19.519,9.02-33.955,25.752-33.955
			s25.748,14.436,25.748,33.955C836.909,59.643,827.893,74.08,811.161,74.08z M811.161-13.672c-29.026,0-49.039,22.31-49.039,53.804
			c0,31.487,20.013,53.796,49.039,53.796c29.03,0,49.047-22.31,49.047-53.796C860.039,8.638,840.191-13.672,811.161-13.672"/>
		<path id="path24" fill="#FFFFFF" d="M925.151,91.306c-3.274,0.322-3.933,0.491-5.735,0.491c-10.005,0-20.5-3.113-23.782-10.833
			v11.814h-22.969v-103.33h22.969V55.22c1.641,11.155,11.968,16.399,21.482,17.38c2.461,0.161,4.761,0.161,8.035,0.161V91.306"/>
		<path id="path26" fill="#FFFFFF" d="M1020.615,51.77h46.575c-0.161,12.473-7.375,22.808-21.643,22.808
			C1032.913,74.402,1023.399,66.536,1020.615,51.77z M1089.339,20.613c-3.442-20.5-18.538-34.285-43.469-34.285
			c-28.696,0-48.713,21.819-48.713,53.635c0,30.835,20.178,54.126,48.223,54.126c29.033,0,44.78-20.669,44.78-50.845V34.88h-70.364
			c0.652-18.04,11.155-29.026,25.913-29.026c11.155,0,19.519,4.915,21.973,14.919h21.658V20.613"/>
		<path id="path28" fill="#FFFFFF" d="M76.699,69.817c-2.461,0.322-4.761,0.82-7.218,1.143c-5.09,0.82-10.499,1.641-15.751,2.3
			c-5.577,0.82-18.699,3.94-18.699,17.227c0,5.083,1.641,9.507,5.083,13.447c5.251,5.903,12.634,8.69,22.804,8.69
			c9.679,0,17.549-3.113,22.635-8.851c3.933-4.6,5.903-9.192,6.229-15.747l0.161-1.97h22.635v2.131
			c-0.326,12.466-4.918,22.471-13.938,31.165c-9.185,8.859-22.8,13.777-37.397,13.777c-14.923,0-27.719-4.757-37.72-14.271
			c-8.207-7.705-12.803-18.204-12.803-28.868c0-20.991,14.11-35.098,38.712-38.87l21.815-3.274
			c13.612-2.139,21.163-9.192,21.163-19.856c0-6.072-1.974-10.496-6.237-14.429C82.925,8.638,74.89,6.177,64.065,6.177
			c-10.334,0-19.849,2.952-24.932,8.035c-5.409,5.251-9.185,13.293-9.185,20.178v2.622H8.298V34.39
			c0-13.286,4.922-25.43,15.092-34.775c9.84-9.016,23.95-13.938,41.001-13.938c16.571,0,31.168,5.244,40.514,14.436
			c8.207,8.035,12.305,17.542,12.305,28.374C117.041,50.627,101.957,66.206,76.699,69.817"/>
		<path id="path30" fill="#FFFFFF" d="M1142.966,6.997c-7.705,0-12.297,3.772-12.297,12.136v53.306h23.291v19.189h-23.291v25.426
			l-23.291-9.02V91.628h-13.616V72.439h13.616V16.511c0-20.5,12.957-30.183,31.326-30.183c7.222,0,12.957,2.3,17.38,5.251v19.519
			C1152.971,8.799,1147.559,6.997,1142.966,6.997"/>
		<path id="path32" fill="#FFFFFF" d="M981.738,6.997c-7.705,0-12.297,3.772-12.297,12.136v53.306h23.284v19.189h-23.284v25.426
			l-23.291-9.02V91.628h-13.616V72.439h13.616V16.511c0-20.5,12.957-30.183,31.326-30.183c7.222,0,12.957,2.3,17.388,5.251v19.519
			C991.743,8.799,986.338,6.997,981.738,6.997"/>
		<path id="path34" fill="#FFFFFF" d="M651.409,6.997c-7.705,0-12.301,3.772-12.301,12.136v53.306h23.291v19.189h-23.291v25.426
			l-23.287-9.02V91.628h-13.612V72.439h13.612V16.511c0-20.5,12.953-30.183,31.326-30.183c7.218,0,12.957,2.3,17.38,5.251v19.519
			C661.253,8.799,656.001,6.997,651.409,6.997"/>
		<path id="path36" fill="#FFFFFF" d="M172.313,6.997c-7.705,0-12.294,3.772-12.294,12.136v53.306h23.287v19.189H160.02v25.426
			l-23.291-9.02V91.628h-13.616V72.439h13.616V16.511c0-20.5,12.949-30.183,31.322-30.183c7.218,0,12.957,2.3,17.388,5.251v19.519
			C182.322,8.799,176.909,6.997,172.313,6.997"/>
		<path id="path38" fill="#FFFFFF" d="M530.039-10.881V54.89c0.165,10.986,11.642,18.047,21.647,18.047
			c13.29,0,19.523-8.372,19.523-21.167v-62.651h23.287V55.71c0,22.793-12.957,38.218-36.412,38.218
			c-12.14,0-22.302-5.574-27.88-12.136v9.675h-23.295v-102.51h23.13V-10.881"/>
		<path id="path40" fill="#FFFFFF" d="M768.186,91.628h-29.681l-39.855-41.66v81.519h-23.291V-10.881h23.291v34.116l9.514,9.836
			l34.109-43.953h28.048l-45.432,58.55L768.186,91.628"/>
		<path id="path42" fill="#FFFFFF" d="M259.574-1.69v-9.192h23.291v102.51h-23.291v-64.79c0.326-11.147-11.32-19.512-21.321-19.512
			c-13.282,0-19.193,8.364-19.193,21.16v63.142h-23.284V24.546c0-22.793,12.788-38.218,36.24-38.218
			c11.975,0,21.98,5.581,27.557,11.975"/>
	</g>
</g>
</svg>
